<?xml version="1.0" encoding="utf-8"?>
<!-- Generated by IcoMoon.io -->
<!DOCTYPE svg PUBLIC "-//W3C//DTD SVG 1.1//EN" "http://www.w3.org/Graphics/SVG/1.1/DTD/svg11.dtd">
<svg version="1.1" xmlns="http://www.w3.org/2000/svg" xmlns:xlink="http://www.w3.org/1999/xlink" width="64" height="64" viewBox="0 0 64 64">
<g id="icomoon-ignore">
</g>
<path d="M0.62 27.227h4.523c0.338 0 0.612-0.275 0.612-0.614v-4.554c0-0.339-0.274-0.614-0.612-0.614h-4.523c-0.339 0-0.612 0.275-0.612 0.614v4.554c0 0.338 0.273 0.614 0.612 0.614zM5.156 29.121h-4.545c-0.337 0-0.611 0.275-0.611 0.615v4.553c0 0.34 0.274 0.615 0.611 0.615h4.545c0.338 0 0.611-0.275 0.611-0.615v-4.553c0.001-0.34-0.273-0.615-0.611-0.615zM5.156 36.773h-4.545c-0.337 0-0.611 0.276-0.611 0.615v4.553c0 0.34 0.274 0.615 0.611 0.615h4.545c0.338 0 0.611-0.275 0.611-0.615v-4.553c0.001-0.339-0.273-0.615-0.611-0.615zM12.138 27.227h4.524c0.338 0 0.612-0.275 0.612-0.614v-4.554c0-0.339-0.274-0.614-0.612-0.614h-4.524c-0.338 0-0.611 0.275-0.611 0.614v4.554c-0.001 0.338 0.273 0.614 0.611 0.614zM16.674 29.121h-4.544c-0.337 0-0.61 0.275-0.61 0.615v4.553c0 0.34 0.273 0.615 0.61 0.615h4.544c0.338 0 0.611-0.275 0.611-0.615v-4.553c0-0.34-0.273-0.615-0.611-0.615zM16.674 36.773h-4.544c-0.337 0-0.61 0.275-0.61 0.614v4.553c0 0.34 0.273 0.615 0.61 0.615h4.544c0.338 0 0.611-0.275 0.611-0.615v-4.553c0-0.338-0.273-0.614-0.611-0.614zM47.334 27.227h4.523c0.338 0 0.61-0.275 0.61-0.614v-4.554c0-0.339-0.272-0.614-0.61-0.614h-4.523c-0.338 0-0.611 0.275-0.611 0.614v4.554c0 0.338 0.273 0.614 0.611 0.614zM51.869 29.121h-4.544c-0.337 0-0.611 0.275-0.611 0.615v4.553c0 0.34 0.274 0.615 0.611 0.615h4.544c0.339 0 0.61-0.275 0.61-0.615v-4.553c0-0.34-0.271-0.615-0.61-0.615zM51.869 36.773h-4.544c-0.337 0-0.611 0.275-0.611 0.614v4.553c0 0.34 0.274 0.615 0.611 0.615h4.544c0.339 0 0.61-0.275 0.61-0.615v-4.553c0-0.338-0.271-0.614-0.61-0.614zM58.853 27.227h4.524c0.337 0 0.61-0.275 0.61-0.614v-4.554c0-0.339-0.273-0.614-0.61-0.614h-4.524c-0.339 0-0.612 0.275-0.612 0.614v4.554c-0.001 0.338 0.273 0.614 0.612 0.614zM63.389 29.121h-4.546c-0.336 0-0.61 0.275-0.61 0.615v4.553c0 0.34 0.274 0.615 0.61 0.615h4.546c0.336 0 0.611-0.275 0.611-0.615v-4.553c0-0.34-0.275-0.615-0.611-0.615zM63.389 36.773h-4.546c-0.336 0-0.61 0.275-0.61 0.614v4.553c0 0.34 0.274 0.615 0.61 0.615h4.546c0.336 0 0.611-0.275 0.611-0.615v-4.553c0-0.338-0.275-0.614-0.611-0.614zM33.313 36.773h-6.465c-0.338 0-0.611 0.275-0.611 0.614v4.553c0 0.34 0.273 0.615 0.611 0.615h6.465c0.338 0 0.611-0.275 0.611-0.615v-4.553c0-0.338-0.274-0.614-0.611-0.614z" fill="#000000"></path>
</svg>
