<?xml version="1.0" encoding="utf-8"?>
<!-- Generated by IcoMoon.io -->
<!DOCTYPE svg PUBLIC "-//W3C//DTD SVG 1.1//EN" "http://www.w3.org/Graphics/SVG/1.1/DTD/svg11.dtd">
<svg version="1.1" xmlns="http://www.w3.org/2000/svg" xmlns:xlink="http://www.w3.org/1999/xlink" width="64" height="64" viewBox="0 0 64 64">
<g id="icomoon-ignore">
</g>
<path d="M33.234 15.094l-21.436 15.475c-0.924 0.761-0.924 2.003 0 2.765 0.924 0.767 2.42 0.767 3.345 0l15.827-11.382v38.089c0 1.084 0.708 1.959 2.014 1.959s2.191-0.875 2.191-1.959v-38.112l13.783 11.405c0.924 0.767 2.421 0.767 3.345 0 0.462-0.382 0.692-0.881 0.692-1.384 0-0.499-0.23-1.001-0.692-1.381l-19.069-15.475zM63.933 1.311h-63.861l-0.072 3.421 64.029-0.061-0.096-3.36z" fill="#000000"></path>
</svg>
